<?xml version="1.0" encoding="UTF-8"?>
<svg version="1.1" xmlns="http://www.w3.org/2000/svg" width="256" height="256">
<path d="M0 0 C0.9909668 0.40943848 0.9909668 0.40943848 2.00195312 0.82714844 C17.39066413 7.28070889 29.94905994 16.50389143 42 28 C42.58652344 28.52335937 43.17304688 29.04671875 43.77734375 29.5859375 C64.78876926 49.06476491 78.11440924 80.48952495 79.31378174 108.8487854 C79.82785065 124.46152631 79.76910327 139.9813171 75 155 C74.78569336 155.68223633 74.57138672 156.36447266 74.35058594 157.06738281 C72.80689662 161.81978878 70.99580276 166.42065233 69 171 C68.57509277 171.98347412 68.57509277 171.98347412 68.14160156 172.98681641 C63.22267875 184.12641011 56.65529091 193.56976554 49 203 C48.28714844 203.886875 47.57429687 204.77375 46.83984375 205.6875 C27.43189063 228.64228644 -2.68056295 242.71537253 -32 247 C-71.27246793 248.98567119 -105.14661989 241.1688633 -135.3125 214.375 C-136.89249159 212.93563593 -138.4533409 211.47512304 -140 210 C-140.80328735 209.23937256 -140.80328735 209.23937256 -141.62280273 208.46337891 C-152.87216082 197.56046563 -161.2094351 184.30593782 -167.20507812 169.90185547 C-167.92349776 168.18303208 -168.68581818 166.48271946 -169.453125 164.78515625 C-181.87159605 135.72144539 -179.80538631 100.64035345 -168.69140625 71.578125 C-163.2454998 58.29542635 -156.51067951 46.80387002 -147 36 C-146.30261719 35.16984375 -145.60523438 34.3396875 -144.88671875 33.484375 C-125.66384985 11.13383639 -98.93434674 -3.10968787 -70 -8 C-68.95972656 -8.18949219 -67.91945313 -8.37898437 -66.84765625 -8.57421875 C-43.92397025 -11.11095152 -21.30657714 -8.93347517 0 0 Z " fill="#E21F26" transform="translate(177,9)"/>
<path d="M0 0 C0.9909668 0.40943848 0.9909668 0.40943848 2.00195312 0.82714844 C17.39066413 7.28070889 29.94905994 16.50389143 42 28 C42.58652344 28.52335937 43.17304688 29.04671875 43.77734375 29.5859375 C64.78876926 49.06476491 78.11440924 80.48952495 79.31378174 108.8487854 C79.82785065 124.46152631 79.76910327 139.9813171 75 155 C74.78569336 155.68223633 74.57138672 156.36447266 74.35058594 157.06738281 C72.80689662 161.81978878 70.99580276 166.42065233 69 171 C68.57509277 171.98347412 68.57509277 171.98347412 68.14160156 172.98681641 C63.22267875 184.12641011 56.65529091 193.56976554 49 203 C48.28714844 203.886875 47.57429687 204.77375 46.83984375 205.6875 C27.43189063 228.64228644 -2.68056295 242.71537253 -32 247 C-71.27246793 248.98567119 -105.14661989 241.1688633 -135.3125 214.375 C-136.89249159 212.93563593 -138.4533409 211.47512304 -140 210 C-140.80328735 209.23937256 -140.80328735 209.23937256 -141.62280273 208.46337891 C-152.87216082 197.56046563 -161.2094351 184.30593782 -167.20507812 169.90185547 C-167.92349776 168.18303208 -168.68581818 166.48271946 -169.453125 164.78515625 C-181.87159605 135.72144539 -179.80538631 100.64035345 -168.69140625 71.578125 C-163.2454998 58.29542635 -156.51067951 46.80387002 -147 36 C-146.30261719 35.16984375 -145.60523438 34.3396875 -144.88671875 33.484375 C-125.66384985 11.13383639 -98.93434674 -3.10968787 -70 -8 C-68.95972656 -8.18949219 -67.91945313 -8.37898437 -66.84765625 -8.57421875 C-43.92397025 -11.11095152 -21.30657714 -8.93347517 0 0 Z M-61 0 C-61 6.6 -61 13.2 -61 20 C-63.31 20.33 -65.62 20.66 -68 21 C-70.30898878 21.70289406 -72.53186377 22.52736377 -74.7890625 23.37890625 C-77.38866861 24.10918429 -79.3135453 24.3438662 -82 24 C-83.80859375 22.49609375 -83.80859375 22.49609375 -85.4375 20.4375 C-86.31921875 19.35275391 -86.31921875 19.35275391 -87.21875 18.24609375 C-88.10046875 17.13427734 -88.10046875 17.13427734 -89 16 C-90.14040697 14.66202252 -91.28579438 13.32826427 -92.4375 12 C-93.7059375 10.515 -93.7059375 10.515 -95 9 C-100.17935061 10.46828943 -104.34373412 12.81491263 -108.875 15.625 C-109.56335938 16.04523437 -110.25171875 16.46546875 -110.9609375 16.8984375 C-112.64391658 17.92692472 -114.32242532 18.962721 -116 20 C-114.24625036 25.54011899 -112.28566971 30.75785264 -109.671875 35.95703125 C-108.8439898 38.47437984 -109.14672941 39.51448743 -110 42 C-111.21508789 43.64746094 -111.21508789 43.64746094 -112.72265625 45.234375 C-113.26083984 45.80800781 -113.79902344 46.38164063 -114.35351562 46.97265625 C-115.19946289 47.85244141 -115.19946289 47.85244141 -116.0625 48.75 C-116.63033203 49.35199219 -117.19816406 49.95398437 -117.78320312 50.57421875 C-119.18231575 52.05563212 -120.59030947 53.5286488 -122 55 C-128.57992273 53.02602318 -134.35850594 50.38685724 -140.3984375 47.109375 C-143.03762651 45.6442048 -143.03762651 45.6442048 -146 47 C-148.00690196 49.72986086 -148.00690196 49.72986086 -149.9375 53.0625 C-150.28941406 53.64942627 -150.64132813 54.23635254 -151.00390625 54.84106445 C-155.78019981 62.00174499 -155.78019981 62.00174499 -158 70 C-156.87980469 70.62648438 -155.75960937 71.25296875 -154.60546875 71.8984375 C-153.13277713 72.72389523 -151.66012282 73.54941954 -150.1875 74.375 C-149.44951172 74.7875 -148.71152344 75.2 -147.95117188 75.625 C-147.23896484 76.02460937 -146.52675781 76.42421875 -145.79296875 76.8359375 C-144.81106567 77.38580322 -144.81106567 77.38580322 -143.80932617 77.94677734 C-142.16823694 78.90206799 -140.5799656 79.9466896 -139 81 C-140.19477162 86.69814156 -141.61291796 92.20109926 -143.4140625 97.73828125 C-144.16719206 100.25596386 -144.16719206 100.25596386 -144 104 C-144.55945313 103.97679688 -145.11890625 103.95359375 -145.6953125 103.9296875 C-153.29368501 103.75866304 -160.49657581 104.82299228 -168 106 C-168 113.92 -168 121.84 -168 130 C-159.91158223 131.26877142 -152.18764057 132.33957956 -144 132 C-143.81824219 132.96099609 -143.81824219 132.96099609 -143.6328125 133.94140625 C-142.85003129 137.98176156 -142.03820604 141.8773385 -140.8125 145.8125 C-139.91854016 149.31957323 -139.84506909 150.60924132 -141 154 C-142.88688777 156.1980387 -144.72207982 158.14564111 -146.8125 160.125 C-147.34681641 160.64964844 -147.88113281 161.17429688 -148.43164062 161.71484375 C-151.15284651 164.35906595 -153.88704304 166.81414645 -157 169 C-155.29816715 174.11575056 -152.32246469 178.35015815 -149.375 182.8125 C-148.859375 183.60076172 -148.34375 184.38902344 -147.8125 185.20117188 C-146.54558583 187.1367352 -145.27467036 189.06953942 -144 191 C-138.54034863 189.32950966 -133.80566539 186.86134748 -128.8046875 184.14453125 C-125.70830225 182.88096457 -125.02955248 182.90158079 -122 184 C-119.76851605 185.86290337 -117.73746557 187.70732968 -115.6875 189.75 C-115.12482422 190.2759375 -114.56214844 190.801875 -113.98242188 191.34375 C-110.00454927 195.27780271 -110.00454927 195.27780271 -109.984375 198.48046875 C-110.31953125 199.31191406 -110.6546875 200.14335937 -111 201 C-111.39316406 202.05316406 -111.78632812 203.10632813 -112.19140625 204.19140625 C-113.10674738 206.44194583 -114.02341806 208.6919451 -114.94140625 210.94140625 C-116.21804607 214.090566 -116.21804607 214.090566 -116 218 C-114.30476042 219.58987484 -114.30476042 219.58987484 -111.984375 220.83203125 C-111.14519531 221.31994141 -110.30601563 221.80785156 -109.44140625 222.31054688 C-108.55324219 222.80619141 -107.66507813 223.30183594 -106.75 223.8125 C-105.87730469 224.32748047 -105.00460938 224.84246094 -104.10546875 225.37304688 C-99.77142447 228.12899401 -99.77142447 228.12899401 -94.87695312 228.83300781 C-92.61902665 227.83092078 -91.81082336 226.86843938 -90.421875 224.83984375 C-89.76445312 223.8972168 -89.76445312 223.8972168 -89.09375 222.93554688 C-88.42859375 221.94651367 -88.42859375 221.94651367 -87.75 220.9375 C-87.29109375 220.27427734 -86.8321875 219.61105469 -86.359375 218.92773438 C-85.22964324 217.29197693 -84.11348827 215.64685766 -83 214 C-81.83082031 214.27714844 -80.66164063 214.55429688 -79.45703125 214.83984375 C-77.90886477 215.20577401 -76.36068709 215.57165693 -74.8125 215.9375 C-74.04357422 216.11990234 -73.27464844 216.30230469 -72.48242188 216.49023438 C-71.73154297 216.66748047 -70.98066406 216.84472656 -70.20703125 217.02734375 C-69.5210083 217.18968506 -68.83498535 217.35202637 -68.12817383 217.51928711 C-65.76103026 218.05397859 -63.37965407 218.52406919 -61 219 C-61 225.6 -61 232.2 -61 239 C-52.75 239 -44.5 239 -36 239 C-34.9108272 236.8216544 -34.71967644 235.2796036 -34.46484375 232.8671875 C-34.38613037 232.14128418 -34.30741699 231.41538086 -34.22631836 230.66748047 C-34.08335327 229.28520264 -34.08335327 229.28520264 -33.9375 227.875 C-33.628125 224.94625 -33.31875 222.0175 -33 219 C-25.74 217.02 -18.48 215.04 -11 213 C-10.01 215.475 -10.01 215.475 -9 218 C-7.67477089 219.97187704 -6.29682146 221.90909385 -4.875 223.8125 C-4.15054688 224.78832031 -3.42609375 225.76414063 -2.6796875 226.76953125 C-2.12539062 227.50558594 -1.57109375 228.24164063 -1 229 C3.6029598 227.27502493 7.93255824 225.0904129 12.3125 222.875 C13.05306641 222.50246094 13.79363281 222.12992188 14.55664062 221.74609375 C16.37201217 220.83255194 18.18613282 219.91652513 20 219 C19.25412073 213.19091672 17.17323911 208.36560419 14.86328125 203.0234375 C14 200 14 200 14.58203125 197.88671875 C16.35081279 195.53321605 18.27342731 193.50067186 20.375 191.4375 C21.14585937 190.67308594 21.91671875 189.90867188 22.7109375 189.12109375 C24.74618467 187.23519066 26.65435568 185.48248622 29 184 C31.98482528 184.62473087 34.50211566 185.76274729 37.24609375 187.0703125 C38.03113281 187.43898437 38.81617188 187.80765625 39.625 188.1875 C40.72714844 188.73470703 40.72714844 188.73470703 41.8515625 189.29296875 C44.45644334 190.15021135 45.45982565 189.98318546 48 189 C49.54873504 187.27635545 49.54873504 187.27635545 50.796875 185.0703125 C51.28027344 184.27496094 51.76367188 183.47960937 52.26171875 182.66015625 C52.75285156 181.82355469 53.24398437 180.98695313 53.75 180.125 C54.25660156 179.29613281 54.76320312 178.46726563 55.28515625 177.61328125 C58.16533955 173.12225218 58.16533955 173.12225218 59 168 C56.42185254 165.87594094 56.42185254 165.87594094 53.1875 163.875 C51.56908203 162.81925781 51.56908203 162.81925781 49.91796875 161.7421875 C47.08482366 159.90893386 47.08482366 159.90893386 44 159 C44.22719727 158.02389771 44.22719727 158.02389771 44.45898438 157.02807617 C45.14271354 154.08199237 45.82141215 151.13477207 46.5 148.1875 C46.73847656 147.16333984 46.97695312 146.13917969 47.22265625 145.08398438 C47.56103516 143.60961914 47.56103516 143.60961914 47.90625 142.10546875 C48.22045898 140.74651489 48.22045898 140.74651489 48.54101562 139.36010742 C49.09544978 136.90991587 49.09544978 136.90991587 49 134 C55.93 133.67 62.86 133.34 70 133 C70 124.42 70 115.84 70 107 C62.54257591 106.37854799 55.43198013 105.85201809 48 106 C48.0309375 105.02933594 48.061875 104.05867188 48.09375 103.05859375 C48.09375 98.62263481 47.32618039 94.40802188 46.5 90.0625 C46.005 87.401875 45.51 84.74125 45 82 C49.95 78.7 54.9 75.4 60 72 C58.57086637 68.72527662 57.13216836 65.45536224 55.6875 62.1875 C55.28337891 61.25873047 54.87925781 60.32996094 54.46289062 59.37304688 C53.86831055 58.0340332 53.86831055 58.0340332 53.26171875 56.66796875 C52.90037842 55.84578857 52.53903809 55.0236084 52.16674805 54.17651367 C51.00933111 52.01740674 49.8204687 50.6189577 48 49 C46.89140625 49.5053125 45.7828125 50.010625 44.640625 50.53125 C43.17725787 51.1878891 41.71370648 51.84411768 40.25 52.5 C39.52039063 52.83386719 38.79078125 53.16773438 38.0390625 53.51171875 C37.33007812 53.82753906 36.62109375 54.14335938 35.890625 54.46875 C35.24125977 54.76201172 34.59189453 55.05527344 33.92285156 55.35742188 C32 56 32 56 28 56 C26.2890625 54.49609375 26.2890625 54.49609375 24.625 52.4375 C21.98226356 49.19177989 21.98226356 49.19177989 19.1796875 46.0859375 C18.62539062 45.50070313 18.07109375 44.91546875 17.5 44.3125 C16.9946875 43.79300781 16.489375 43.27351563 15.96875 42.73828125 C15 41 15 41 15.15234375 38.6796875 C16.15250766 35.51787901 17.52019273 32.74762376 19.0625 29.8125 C21.23289952 26.08952847 21.23289952 26.08952847 22 22 C19.26193053 19.86861403 16.21749105 18.16823846 13.25 16.375 C12.425 15.859375 11.6 15.34375 10.75 14.8125 C9.55117188 14.08160156 9.55117188 14.08160156 8.328125 13.3359375 C7.5949707 12.88782715 6.86181641 12.4397168 6.10644531 11.97802734 C3.78240171 10.71925089 3.78240171 10.71925089 0 11 C-1.5539787 12.36798936 -1.5539787 12.36798936 -2.796875 14.28125 C-3.28027344 14.95800781 -3.76367188 15.63476562 -4.26171875 16.33203125 C-4.75285156 17.04746094 -5.24398437 17.76289063 -5.75 18.5 C-6.25660156 19.21542969 -6.76320312 19.93085938 -7.28515625 20.66796875 C-8.53527582 22.43700587 -9.76920247 24.21746565 -11 26 C-11.56509277 25.81824219 -12.13018555 25.63648437 -12.71240234 25.44921875 C-15.26565409 24.62982506 -17.82029847 23.8148617 -20.375 23 C-21.26445312 22.71382812 -22.15390625 22.42765625 -23.0703125 22.1328125 C-23.92109375 21.86210937 -24.771875 21.59140625 -25.6484375 21.3125 C-26.43395996 21.06113281 -27.21948242 20.80976563 -28.02880859 20.55078125 C-29.97992105 19.9102974 -29.97992105 19.9102974 -32 20 C-32.66 13.4 -33.32 6.8 -34 0 C-42.91 0 -51.82 0 -61 0 Z " fill="#D6B36E" transform="translate(177,9)"/>
<path d="M0 0 C0.66 0 1.32 0 2 0 C2.32049316 0.57105469 2.64098633 1.14210938 2.97119141 1.73046875 C9.22966035 12.87041065 15.53922887 23.97596346 22 35 C27.08545572 43.6796084 32.08020333 52.40479409 37.01098633 61.1730957 C41.98889663 70.01350552 47.06082003 78.79828028 52.15209961 87.57373047 C52.75546143 88.6154541 53.35882324 89.65717773 53.98046875 90.73046875 C54.51567139 91.65239014 55.05087402 92.57431152 55.60229492 93.52416992 C56.80599265 95.65634436 57.91501133 97.80627703 59 100 C41.29112118 100.07355528 23.58870303 99.8948143 5.88232422 99.62768555 C2.96080239 99.58371738 0.03926263 99.54209493 -2.88232422 99.50268555 C-20.60124375 99.26335981 -38.29876073 98.8775965 -56 98 C-51.61982563 88.85932489 -46.66566478 80.19837121 -41.48193359 71.49755859 C-38.73430552 66.86687735 -36.0245147 62.21409862 -33.3125 57.5625 C-32.7249292 56.55517822 -32.1373584 55.54785645 -31.53198242 54.51000977 C-27.10549911 46.91400467 -22.70460236 39.30342564 -18.3125 31.6875 C-17.68939941 30.60879639 -17.06629883 29.53009277 -16.42431641 28.41870117 C-13.48993966 23.33551365 -10.56829884 18.24606948 -7.6796875 13.13671875 C-7.17139404 12.24315674 -6.66310059 11.34959473 -6.1394043 10.42895508 C-5.19456087 8.76693943 -4.25559673 7.10156306 -3.32348633 5.43237305 C-2.27172535 3.58845126 -1.14399354 1.78816316 0 0 Z " fill="#2E2B28" transform="translate(128,63)"/>
<path d="M0 0 C2.76647806 2.76647806 4.19366554 4.86919172 6.046875 8.25 C6.63710449 9.32016357 7.22733398 10.39032715 7.83544922 11.49291992 C8.46725098 12.65025635 9.09905273 13.80759277 9.75 15 C10.41498155 16.20904058 11.08051788 17.41777619 11.74658203 18.6262207 C13.13498782 21.14627231 14.52097418 23.66763184 15.90527344 26.18994141 C19.20687714 32.20112787 22.54256811 38.19337045 25.875 44.1875 C26.80856323 45.87057251 26.80856323 45.87057251 27.76098633 47.58764648 C30.4671983 52.4635967 33.18109359 57.3341231 35.94140625 62.1796875 C36.37018066 62.93354736 36.79895508 63.68740723 37.24072266 64.46411133 C38.01125141 65.81513023 38.78538698 67.16410169 39.56396484 68.51049805 C42 72.78043596 42 72.78043596 42 75 C31.11 75 20.22 75 9 75 C9 77.97 9 80.94 9 84 C6.03 84 3.06 84 0 84 C0 56.28 0 28.56 0 0 Z " fill="#D2B16B" transform="translate(131,74)"/>
<path d="M0 0 C0.33 0 0.66 0 1 0 C3.83533959 20.23414651 -3.00913746 32.81315282 -14 49 C-14.66 49.99 -15.32 50.98 -16 52 C-10.39 52 -4.78 52 1 52 C1 55.3 1 58.6 1 62 C-10.88 62 -22.76 62 -35 62 C-30.16605545 52.93635396 -25.33552143 43.89407979 -20.3125 34.9375 C-19.72380127 33.88763916 -19.13510254 32.83777832 -18.52856445 31.75610352 C-14.31710848 24.27598788 -10.03690287 16.83823993 -5.6875 9.4375 C-5.1303833 8.48544678 -4.5732666 7.53339355 -3.99926758 6.55249023 C-3.48775146 5.68825439 -2.97623535 4.82401855 -2.44921875 3.93359375 C-1.99893311 3.17103271 -1.54864746 2.40847168 -1.0847168 1.62280273 C-0.54778198 0.81951538 -0.54778198 0.81951538 0 0 Z " fill="#D1B06A" transform="translate(113,96)"/>
<path d="M0 0 C0.33 0 0.66 0 1 0 C1 28.05 1 56.1 1 85 C-1.97 85 -4.94 85 -8 85 C-8.1865713 75.98481982 -8.32811033 66.97031878 -8.41449738 57.953619 C-8.45599074 53.76525348 -8.51212965 49.57822258 -8.60351562 45.390625 C-8.69138724 41.33802097 -8.7384677 37.28668809 -8.75901794 33.23320389 C-8.77363348 31.69830976 -8.80216901 30.16347365 -8.84584045 28.62913132 C-9.16351054 16.98954974 -6.66974283 9.55782987 0 0 Z " fill="#D7B56D" transform="translate(126,74)"/>
<path d="M0 0 C2.60452271 0.14086602 5.20850197 0.28748464 7.8125 0.4375 C8.91948242 0.49647461 8.91948242 0.49647461 10.04882812 0.55664062 C13.23071342 0.74381035 15.96162378 0.98720793 19 2 C19.94921875 3.85546875 19.94921875 3.85546875 20.6875 6.1875 C20.93886719 6.94417969 21.19023437 7.70085937 21.44921875 8.48046875 C22.1383943 11.63308033 22.49520568 13.77512398 22 17 C20.16722791 19.60703475 17.94961125 21.70732453 15.625 23.875 C15.02171875 24.46796875 14.4184375 25.0609375 13.796875 25.671875 C9.30918779 30 9.30918779 30 7 30 C6.00491321 26.8798511 5.03201406 23.75318038 4.0625 20.625 C3.78470703 19.75488281 3.50691406 18.88476562 3.22070312 17.98828125 C1.37703974 11.99082204 0.38346615 6.26187584 0 0 Z " fill="#2C2C28" transform="translate(10,144)"/>
<path d="M0 0 C5.58507504 2.69319824 10.9400039 5.40473961 16 9 C15.71342606 10.54262145 15.42046123 12.08405606 15.125 13.625 C14.96257813 14.48351562 14.80015625 15.34203125 14.6328125 16.2265625 C13.94708729 19.2319014 13.01513455 22.09108503 12 25 C9.77149723 25.33774332 7.54216533 25.6700187 5.3125 26 C4.07113281 26.185625 2.82976563 26.37125 1.55078125 26.5625 C-1.35886371 26.92100411 -4.07700022 27.08942256 -7 27 C-6.51673668 17.97908475 -4.06032114 8.12064227 0 0 Z " fill="#2C2C28" transform="translate(17,83)"/>
<path d="M0 0 C2.30259931 2.85839915 3.86268345 5.60418038 5.25 9 C5.78367187 10.2684375 5.78367187 10.2684375 6.328125 11.5625 C7.09028207 14.32753497 7.13711485 15.38617943 6 18 C4.15234375 20.359375 4.15234375 20.359375 1.9375 22.75 C1.20402344 23.54921875 0.47054687 24.3484375 -0.28515625 25.171875 C-0.85105469 25.77515625 -1.41695312 26.3784375 -2 27 C-7.99932374 25.1668733 -13.44920563 22.92678249 -19 20 C-17.36879787 15.836932 -14.32183098 13.06232095 -11.1875 10 C-10.66607422 9.47921875 -10.14464844 8.9584375 -9.60742188 8.421875 C-6.55173733 5.40052398 -3.41215427 2.62376373 0 0 Z " fill="#2C2B28" transform="translate(56,32)"/>
<path d="M0 0 C2.66029882 3.30217766 4.56099948 6.79514133 6.50390625 10.55859375 C6.98983498 11.49784447 6.98983498 11.49784447 7.48558044 12.45606995 C8.1671963 13.77555078 8.84701886 15.09595938 9.52514648 16.41723633 C10.55845401 18.42962037 11.59809596 20.43863208 12.63867188 22.44726562 C15.28515689 27.57810166 17.85283332 32.63208329 20 38 C13.73 38 7.46 38 1 38 C-0.19148936 12.08510638 -0.19148936 12.08510638 0 0 Z " fill="#2C2B28" transform="translate(138,101)"/>
<path d="M0 0 C3.08744763 2.32251447 5.67151863 4.91633548 8 8 C8.25 10.875 8.25 10.875 7 14 C6.54560547 15.26650391 6.54560547 15.26650391 6.08203125 16.55859375 C3.40143603 23.79928198 3.40143603 23.79928198 1 25 C-6.04967062 19.51836274 -12.31111095 13.89512914 -18 7 C-15.13443321 4.7446928 -12.23722426 2.92782965 -9 1.25 C-8.154375 0.80140625 -7.30875 0.3528125 -6.4375 -0.109375 C-3.63936181 -1.13177165 -2.69665978 -1.20030964 0 0 Z " fill="#2C2C28" transform="translate(54,198)"/>
<path d="M0 0 C1.07765625 0.00902344 2.1553125 0.01804688 3.265625 0.02734375 C4.08546875 0.03894531 4.9053125 0.05054688 5.75 0.0625 C5.22650497 6.6823928 3.90274936 12.38015553 1.6875 18.625 C1.40583984 19.44291016 1.12417969 20.26082031 0.83398438 21.10351562 C0.14764559 23.09273483 -0.5499845 25.0780524 -1.25 27.0625 C-3.04905924 25.99148814 -4.83903096 24.90520085 -6.625 23.8125 C-7.62273437 23.20921875 -8.62046875 22.6059375 -9.6484375 21.984375 C-13.52856926 19.11797135 -13.52856926 19.11797135 -14.25 16.0625 C-13.74969753 13.35971652 -13.16958415 10.9232765 -12.375 8.3125 C-12.17519531 7.61511719 -11.97539062 6.91773438 -11.76953125 6.19921875 C-11.2758892 4.48322495 -10.76464497 2.7723122 -10.25 1.0625 C-6.78777385 -0.00473961 -3.60960734 -0.03923486 0 0 Z " fill="#2D2C29" transform="translate(240.25,146.9375)"/>
<path d="M0 0 C0.81436587 2.41605225 1.62655397 4.83279998 2.4375 7.25 C2.66759766 7.93191406 2.89769531 8.61382812 3.13476562 9.31640625 C5.126168 15.26175247 6.12103005 19.70643754 6 26 C4.083412 26.02712153 2.1667127 26.04645097 0.25 26.0625 C-1.35101563 26.07990234 -1.35101563 26.07990234 -2.984375 26.09765625 C-5.53368501 26.01510087 -7.57933591 25.74617558 -10 25 C-10.53364887 22.94077867 -11.05142189 20.87743893 -11.5625 18.8125 C-11.85253906 17.66394531 -12.14257812 16.51539062 -12.44140625 15.33203125 C-13.000221 11.99868175 -13.21849963 10.1363121 -12 7 C-9.78515625 4.98046875 -9.78515625 4.98046875 -7.0625 3.1875 C-6.16660156 2.58292969 -5.27070313 1.97835937 -4.34765625 1.35546875 C-2 0 -2 0 0 0 Z " fill="#2D2C29" transform="translate(240,85)"/>
<path d="M0 0 C5.32954487 3.4817657 9.70930993 7.58647913 14 12.25 C14.49282471 12.78141602 14.98564941 13.31283203 15.4934082 13.86035156 C19 17.7443094 19 17.7443094 19 20 C17.08959948 20.8680908 15.17139263 21.71901783 13.25 22.5625 C12.18265625 23.03816406 11.1153125 23.51382813 10.015625 24.00390625 C6.94591481 25.01786493 5.87308299 25.3509603 3 24 C1.1484375 22.4765625 1.1484375 22.4765625 -0.625 20.625 C-1.21539062 20.01914062 -1.80578125 19.41328125 -2.4140625 18.7890625 C-4 17 -4 17 -6 14 C-5.65951383 10.21750813 -4.33124765 7.44086134 -2.4375 4.1875 C-1.98246094 3.39730469 -1.52742187 2.60710938 -1.05859375 1.79296875 C-0.53458984 0.90544922 -0.53458984 0.90544922 0 0 Z " fill="#2D2C29" transform="translate(203,35)"/>
<path d="M0 0 C0.77601563 0.27199219 1.55203125 0.54398438 2.3515625 0.82421875 C3.12242187 1.08847656 3.89328125 1.35273438 4.6875 1.625 C6.86369481 2.46799697 8.90966023 3.43107807 10.9765625 4.51171875 C9.56405765 9.03666162 7.06561216 11.84706754 3.7265625 15.07421875 C2.79328125 16.00363281 1.86 16.93304688 0.8984375 17.890625 C-1.97343474 20.46686333 -4.76920672 22.46578964 -8.0234375 24.51171875 C-8.8915283 22.60131823 -9.74245533 20.68311138 -10.5859375 18.76171875 C-11.29943359 17.16070312 -11.29943359 17.16070312 -12.02734375 15.52734375 C-13.39865647 11.37576173 -13.39865647 11.37576173 -12.0234375 8.51171875 C-10.24609375 6.40625 -10.24609375 6.40625 -8.0859375 4.32421875 C-7.02052734 3.28201172 -7.02052734 3.28201172 -5.93359375 2.21875 C-2.71712878 -0.65567779 -2.71712878 -0.65567779 0 0 Z " fill="#2C2C28" transform="translate(209.0234375,198.48828125)"/>
<path d="M0 0 C5.50808397 0.59015185 10.64878069 1.56663769 16 3 C16 7.95 16 12.9 16 18 C8.125 18 8.125 18 4.59765625 16.90625 C3.48100586 16.56787109 3.48100586 16.56787109 2.34179688 16.22265625 C1.58962891 15.98417969 0.83746094 15.74570313 0.0625 15.5 C-0.71673828 15.26152344 -1.49597656 15.02304688 -2.29882812 14.77734375 C-4.20190376 14.19357822 -6.10134922 13.59800024 -8 13 C-6.53181332 9.89257577 -4.79975 7.09528261 -2.875 4.25 C-2.33617188 3.45078125 -1.79734375 2.6515625 -1.2421875 1.828125 C-0.62730469 0.92320312 -0.62730469 0.92320312 0 0 Z " fill="#2D2C29" transform="translate(95,228)"/>
<path d="M0 0 C8.67366343 1.46785073 16.72097076 4.10785912 25 7 C22.38888348 11.83540096 19.62542917 15.87103901 16 20 C14.43662827 19.54464901 12.87434151 19.08557224 11.3125 18.625 C10.44238281 18.36976562 9.57226562 18.11453125 8.67578125 17.8515625 C6.07486881 17.02382686 3.53422977 16.01369191 1 15 C0.67 10.05 0.34 5.1 0 0 Z " fill="#2C2C28" transform="translate(148,10)"/>
<path d="M0 0 C3.53499464 3.4529218 6.44810615 6.74684358 9 11 C9 11.66 9 12.32 9 13 C-6.56036446 18.55580866 -6.56036446 18.55580866 -15 19 C-15.02703381 17.06257659 -15.04641125 15.12504521 -15.0625 13.1875 C-15.07410156 12.10855469 -15.08570313 11.02960938 -15.09765625 9.91796875 C-15 7 -15 7 -14 4 C-11.61933199 3.12012394 -9.38518099 2.42741106 -6.9375 1.8125 C-6.27427734 1.63525391 -5.61105469 1.45800781 -4.92773438 1.27539062 C-3.28812574 0.83894804 -1.64440762 0.41799781 0 0 Z " fill="#2D2C29" transform="translate(162,227)"/>
<path d="M0 0 C0 4.95 0 9.9 0 15 C-6.435 16.98 -6.435 16.98 -13 19 C-22.375 9.89285714 -22.375 9.89285714 -24 6 C-16.01144368 2.56442046 -8.75519735 0 0 0 Z " fill="#2C2B28" transform="translate(111,10)"/>
<path d="M0 0 C3.375 1.0625 3.375 1.0625 5.375 3.3125 C6.55586454 6.55987748 6.68537288 7.8684661 5.375 11.0625 C2.74229399 13.84564635 1.09237169 14.93073785 -2.6875 15.625 C-5.625 15.0625 -5.625 15.0625 -8.0625 12.9375 C-9.625 10.0625 -9.625 10.0625 -9.6875 7 C-7.83850621 1.88807599 -5.43761321 0.09375195 0 0 Z " fill="#FAEBEB" transform="translate(64.625,168.9375)"/>
<path d="M0 0 C3.0681336 1.25872148 4.55249287 2.24498958 6.4375 5 C6.51385097 9.27565406 6.08135417 11.26416666 3.25 14.5 C0.4375 16 0.4375 16 -2.6875 16 C-5.5625 15 -5.5625 15 -7.5 13.375 C-9.07923514 9.84494498 -8.61299156 7.67672044 -7.5625 4 C-5.06579587 1.2258843 -3.78088506 0 0 0 Z " fill="#F9E4E4" transform="translate(184.5625,60)"/>
<path d="M0 0 C3.80185823 1.08624521 5.38912969 1.65778867 7.5 5 C7.5 8.77684879 7.28395245 11.03513544 4.875 14 C1.41616747 15.45635054 -0.91298371 14.91305869 -4.5 14 C-6.4375 12.875 -6.4375 12.875 -7.5 11 C-7.99891602 7.07994554 -8.05253414 4.88405462 -5.9375 1.5 C-3.5 0 -3.5 0 0 0 Z " fill="#FAF1F1" transform="translate(48.5,102)"/>
<path d="M0 0 C2.22004799 4.30950492 2.14885105 7.31622265 1 12 C-2.77530854 14.51687236 -5.564137 14.74085395 -10 14 C-13.25242082 11.27216318 -13.5348357 8.0934458 -14 4 C-12.23141309 3.32739649 -10.46003984 2.66211605 -8.6875 2 C-7.70136719 1.62875 -6.71523437 1.2575 -5.69921875 0.875 C-3 0 -3 0 0 0 Z " fill="#FAE9EA" transform="translate(210,92)"/>
<path d="M0 0 C3.77168314 1.14497524 5.39576725 1.73079815 7.5 5.0625 C7.35146936 9.29562311 6.85931785 11.52352322 4.5 15.0625 C-0.65464734 14.57925181 -4.31550319 11.87639239 -8.5 9.0625 C-7.3567003 3.82798079 -5.84911843 0.10444854 0 0 Z " fill="#FAECEC" transform="translate(56.5,80.9375)"/>
<path d="M0 0 C4.20233434 2.41952583 8.07927649 5.15555353 12 8 C10.47291037 11.43595166 8.40072955 14.11912454 6 17 C4.35 16.67 2.7 16.34 1 16 C0.67 14.35 0.34 12.7 0 11 C-2.31 11 -4.62 11 -7 11 C-6.67 10.01 -6.34 9.02 -6 8 C-3.36 7.67 -0.72 7.34 2 7 C2 6.34 2 5.68 2 5 C1.01 4.34 0.02 3.68 -1 3 C-0.67 2.01 -0.34 1.02 0 0 Z " fill="#F9E9E9" transform="translate(190,168)"/>
<path d="M0 0 C2.97 1.65 5.94 3.3 9 5 C9 6.65 9 8.3 9 10 C8.34 10.66 7.68 11.32 7 12 C6.01 12 5.02 12 4 12 C4 14.31 4 16.62 4 19 C3.01 18.67 2.02 18.34 1 18 C0.8046875 15.94921875 0.609375 13.8984375 0.4140625 11.84765625 C0.20910156 10.93306641 0.20910156 10.93306641 0 10 C-0.66 9.67 -1.32 9.34 -2 9 C-2.66 10.65 -3.32 12.3 -4 14 C-4.66 14 -5.32 14 -6 14 C-5.15628891 8.54012248 -2.7601499 4.74179598 0 0 Z " fill="#FAECEC" transform="translate(168,48)"/>
<path d="M0 0 C3.78570414 1.26190138 4.21831571 2.54855815 6.1875 5.9375 C6.71730469 6.83339844 7.24710938 7.72929688 7.79296875 8.65234375 C9 11 9 11 9 13 C7.4375 13.75 7.4375 13.75 5 14 C2.49713591 12.86915563 0.32992278 11.47860484 -2 10 C-1.01 12.31 -0.02 14.62 1 17 C0.01 17.33 -0.98 17.66 -2 18 C-3.03307771 16.23628182 -4.05112049 14.46374967 -5.0625 12.6875 C-5.63097656 11.70136719 -6.19945313 10.71523438 -6.78515625 9.69921875 C-8 7 -8 7 -7 4 C-4 5 -1 6 2 7 C1.67 6.401875 1.34 5.80375 1 5.1875 C0 3 0 3 0 0 Z " fill="#FAEBEB" transform="translate(87,48)"/>
<path d="M0 0 C0 0.99 0 1.98 0 3 C-2.31 3 -4.62 3 -7 3 C-7 5.31 -7 7.62 -7 10 C-5.35 10.33 -3.7 10.66 -2 11 C-1.34 10.01 -0.68 9.02 0 8 C-1.32 8 -2.64 8 -4 8 C-4 7.34 -4 6.68 -4 6 C-2.0085944 5.61866701 -0.00720923 5.28674418 2 5 C3 6 3 6 3.25 8.375 C3 11 3 11 2 12.8125 C-1.20274778 14.7141315 -4.37658609 14.53708223 -8 14 C-9.9375 12.9375 -9.9375 12.9375 -11 11 C-11.9375 7.5625 -11.9375 7.5625 -12 4 C-8.25385082 -0.9087472 -5.83882396 -1.1423786 0 0 Z " fill="#F9E1E1" transform="translate(107,43)"/>
<path d="M0 0 C5.23880078 0.55145271 9.97350697 1.42922093 15 3 C13.25 10.75 13.25 10.75 11 13 C8.5 13.3125 8.5 13.3125 6 13 C3.43312633 9.1496895 4.16711276 7.41430237 5 3 C3.35 2.67 1.7 2.34 0 2 C0 1.34 0 0.68 0 0 Z " fill="#F9E4E4" transform="translate(200,143)"/>
<path d="M0 0 C1.8125 0.125 1.8125 0.125 4 1 C5.75 4.0625 5.75 4.0625 7 7 C7.66 4.69 8.32 2.38 9 0 C9.66 0 10.32 0 11 0 C11 4.95 11 9.9 11 15 C9.68 15 8.36 15 7 15 C5.68 12.36 4.36 9.72 3 7 C2.67 9.31 2.34 11.62 2 14 C1.01 14 0.02 14 -1 14 C-1.08333357 9.1666528 -0.95261487 4.76307437 0 0 Z " fill="#FAECEC" transform="translate(129,39)"/>
<path d="M0 0 C2.4375 -0.375 2.4375 -0.375 5 0 C6.66796875 1.2421875 6.66796875 1.2421875 8 3 C8.1796875 5.15625 8.1796875 5.15625 7.875 7.5 C7.78992188 8.2734375 7.70484375 9.046875 7.6171875 9.84375 C6.89341512 12.37237248 6.10191339 13.43756075 4 15 C1.3125 14.6875 1.3125 14.6875 -1 14 C-1.33 13.01 -1.66 12.02 -2 11 C-1.01 11 -0.02 11 1 11 C1 11.66 1 12.32 1 13 C1.99 12.01 2.98 11.02 4 10 C2.35 9.67 0.7 9.34 -1 9 C-1.625 6.1875 -1.625 6.1875 -2 3 C-1.34 2.01 -0.68 1.02 0 0 Z " fill="#F9E2E2" transform="translate(118,200)"/>
<path d="M0 0 C0.91058531 3.07322544 1.08886184 5.80097361 1 9 C3.31 9 5.62 9 8 9 C8.33 7.35 8.66 5.7 9 4 C8.34 3.67 7.68 3.34 7 3 C7 3.99 7 4.98 7 6 C6.01 6 5.02 6 4 6 C4 4.02 4 2.04 4 0 C6.31 0 8.62 0 11 0 C12.55774936 3.11549872 12.56480622 6.6044388 12 10 C10.42264729 12.20629714 9.51481787 12.89647684 6.84375 13.43359375 C0.56361543 13.44406064 0.56361543 13.44406064 -2.0625 11.375 C-3.25768801 8.34719037 -3.41213321 6.2283768 -3 3 C-1.5 1.125 -1.5 1.125 0 0 Z " fill="#F9E6E6" transform="translate(42,127)"/>
<path d="M0 0 C0.66 3.63 1.32 7.26 2 11 C1.01 11 0.02 11 -1 11 C-1.33 8.69 -1.66 6.38 -2 4 C-2.99 4 -3.98 4 -5 4 C-4.67 6.64 -4.34 9.28 -4 12 C-4.99 12 -5.98 12 -7 12 C-7.33 9.69 -7.66 7.38 -8 5 C-9.32 5 -10.64 5 -12 5 C-11.34 7.97 -10.68 10.94 -10 14 C-10.99 14 -11.98 14 -13 14 C-13.66 10.37 -14.32 6.74 -15 3 C-13.0636296 2.49564306 -11.12585854 1.99666126 -9.1875 1.5 C-8.10855469 1.2215625 -7.02960938 0.943125 -5.91796875 0.65625 C-3 0 -3 0 0 0 Z " fill="#F9E1E1" transform="translate(215,108)"/>
<path d="M0 0 C5.45987752 0.84371109 9.25820402 3.2398501 14 6 C12.35 9.3 10.7 12.6 9 16 C8.34 15.67 7.68 15.34 7 15 C7.309375 14.236875 7.61875 13.47375 7.9375 12.6875 C8.67893593 10.81210323 9.36228217 8.91315348 10 7 C6.88667752 7.66868314 6.88667752 7.66868314 5.8125 10.0625 C5.544375 10.701875 5.27625 11.34125 5 12 C4.01 11.67 3.02 11.34 2 11 C2.66 9.02 3.32 7.04 4 5 C3.01 4.67 2.02 4.34 1 4 C0.34 5.98 -0.32 7.96 -1 10 C-1.99 10 -2.98 10 -4 10 C-2.8905928 6.51329166 -1.73662334 3.22515763 0 0 Z " fill="#F9E6E6" transform="translate(196,156)"/>
<path d="M0 0 C3.07265188 0.24257778 4.59969586 0.62638281 6.875 2.75 C8.29737468 5.59474935 7.91172698 7.01616624 7 10 C5.5 8.6875 5.5 8.6875 4 7 C4 6.01 4 5.02 4 4 C3.01 3.67 2.02 3.34 1 3 C1.33 3.721875 1.66 4.44375 2 5.1875 C3.02579569 8.07255039 3.40911584 9.97254276 3 13 C0 15 0 15 -2 14.8125 C-4.40618987 13.83498536 -5.51717922 13.15009013 -7 11 C-7.1875 7.8125 -7.1875 7.8125 -7 5 C-6.01 5 -5.02 5 -4 5 C-3.67 6.98 -3.34 8.96 -3 11 C-2.01 11.33 -1.02 11.66 0 12 C-0.5259375 10.6696875 -0.5259375 10.6696875 -1.0625 9.3125 C-2.02117134 5.92519461 -2.03850183 4.30432401 -1 1 C-0.67 0.67 -0.34 0.34 0 0 Z " fill="#F9E5E5" transform="translate(194,73)"/>
<path d="M0 0 C0.66 0.33 1.32 0.66 2 1 C0.66666667 3.66666667 -0.66666667 6.33333333 -2 9 C1.33537489 7.88820837 2.63707344 6.52588702 5 4 C5 7.76687864 4.76462683 8.91190305 3 12 C3.99 12 4.98 12 6 12 C7.70532323 10.05990478 7.70532323 10.05990478 9 8 C9.99 8.33 10.98 8.66 12 9 C10.02 11.64 8.04 14.28 6 17 C1.92589762 15.9814744 0.73535019 15.17407101 -2.25 12.4375 C-2.95640625 11.79683594 -3.6628125 11.15617187 -4.390625 10.49609375 C-4.92171875 10.00238281 -5.4528125 9.50867188 -6 9 C-4.68775452 5.06326356 -3.08089673 2.77280706 0 0 Z " fill="#F9EAEA" transform="translate(63,66)"/>
<path d="M0 0 C0.78375 0.04125 1.5675 0.0825 2.375 0.125 C2.375 1.445 2.375 2.765 2.375 4.125 C1.385 3.795 0.395 3.465 -0.625 3.125 C-1.615 4.61 -1.615 4.61 -2.625 6.125 C-1.84125 5.91875 -1.0575 5.7125 -0.25 5.5 C1.049375 5.314375 1.049375 5.314375 2.375 5.125 C4.375 7.125 4.375 7.125 4.625 10.125 C4.375 13.125 4.375 13.125 2.375 15.125 C-0.92214793 14.79528521 -2.2476839 14.5023161 -4.625 12.125 C-4.890625 9.8125 -4.890625 9.8125 -4.875 7.125 C-4.88015625 6.238125 -4.8853125 5.35125 -4.890625 4.4375 C-4.49082542 0.95689188 -3.46060962 0.16479093 0 0 Z " fill="#FAF1F1" transform="translate(134.625,199.875)"/>
<path d="M0 0 C0.99 0.33 1.98 0.66 3 1 C3.66 4.3 4.32 7.6 5 11 C-4.375 14 -4.375 14 -10 14 C-10.66 10.7 -11.32 7.4 -12 4 C-11.01 4.33 -10.02 4.66 -9 5 C-8.67 6.98 -8.34 8.96 -8 11 C-7.34 10.67 -6.68 10.34 -6 10 C-6 7.69 -6 5.38 -6 3 C-5.01 3.33 -4.02 3.66 -3 4 C-2.67 5.65 -2.34 7.3 -2 9 C-0.68 9 0.64 9 2 9 C1.34 6.03 0.68 3.06 0 0 Z " fill="#F9E9E9" transform="translate(53,142)"/>
<path d="M0 0 C3.3 0.99 6.6 1.98 10 3 C10 3.99 10 4.98 10 6 C7.36 5.67 4.72 5.34 2 5 C1.67 5.66 1.34 6.32 1 7 C3.31 7.66 5.62 8.32 8 9 C7.67 9.66 7.34 10.32 7 11 C4.69 10.34 2.38 9.68 0 9 C-0.33 10.32 -0.66 11.64 -1 13 C1.31 13.66 3.62 14.32 6 15 C5.67 15.99 5.34 16.98 5 18 C0.545 16.02 0.545 16.02 -4 14 C-2.25 4.5 -2.25 4.5 0 0 Z " fill="#FAEEEE" transform="translate(153,42)"/>
<path d="M0 0 C4.36611768 2.11690554 7.31714669 6.09870846 10.0625 10 C6.0625 10 6.0625 10 4.359375 8.6875 C3.59367188 7.8521875 3.59367188 7.8521875 2.8125 7 C2.29171875 6.443125 1.7709375 5.88625 1.234375 5.3125 C0.65429688 4.6628125 0.65429688 4.6628125 0.0625 4 C-0.9275 4.33 -1.9175 4.66 -2.9375 5 C-2.43227778 9.37859255 0.24077222 11.81651224 3.0625 15 C2.7325 15.66 2.4025 16.32 2.0625 17 C-2.4848805 15.4842065 -4.60577988 12.08437068 -6.9375 8 C-7.0625 5.1875 -7.0625 5.1875 -5.9375 3 C-3.95996681 0.95427601 -2.8821086 0 0 0 Z " fill="#F7DDDD" transform="translate(180.9375,181)"/>
<path d="M0 0 C0 0.66 0 1.32 0 2 C-2.31 2.33 -4.62 2.66 -7 3 C-7 3.99 -7 4.98 -7 6 C-4.69 6 -2.38 6 0 6 C0 6.66 0 7.32 0 8 C-1.65 8.33 -3.3 8.66 -5 9 C-5 9.99 -5 10.98 -5 12 C-2.69 12 -0.38 12 2 12 C2 12.66 2 13.32 2 14 C-0.40545638 15.20272819 -1.94996953 15.10071472 -4.625 15.0625 C-5.85089844 15.04896484 -5.85089844 15.04896484 -7.1015625 15.03515625 C-8.04128906 15.01775391 -8.04128906 15.01775391 -9 15 C-9.95261487 10.23692563 -10.08333357 5.8333472 -10 1 C-6.52674819 -0.1577506 -3.63932552 -0.06866652 0 0 Z " fill="#FBEDED" transform="translate(123,39)"/>
<path d="M0 0 C2.62655933 0.35494045 4.57968261 0.72461964 6.8125 2.1875 C8.63962591 4.97627113 8.52190658 6.73808389 8 10 C5.9375 12.9375 5.9375 12.9375 3 15 C-1.02034924 14.93185849 -3.1176825 14.8823175 -6 12 C-6.125 8.875 -6.125 8.875 -6 6 C-5.01 6.33 -4.02 6.66 -3 7 C-2.3125 9.0625 -2.3125 9.0625 -2 11 C1.29075996 10.62095792 1.29075996 10.62095792 4 9 C4.04063832 7.33382885 4.042721 5.66611905 4 4 C2.35 4 0.7 4 -1 4 C-0.67 2.68 -0.34 1.36 0 0 Z " fill="#F9EBEB" transform="translate(73,181)"/>
<path d="M0 0 C0.125 6.625 0.125 6.625 -1 10 C0.32 10 1.64 10 3 10 C3 10.66 3 11.32 3 12 C-0.37097383 13.49821059 -2.20442119 14 -6 14 C-5.5020163 10.26512223 -5.12508244 8.18762365 -3 5 C-3 4.01 -3 3.02 -3 2 C-3.66 2 -4.32 2 -5 2 C-5.33 2.66 -5.66 3.32 -6 4 C-6.99 4 -7.98 4 -9 4 C-8.625 2.0625 -8.625 2.0625 -8 0 C-5.13822943 -1.43088528 -3.06624227 -0.59991697 0 0 Z " fill="#FAEDED" transform="translate(151,199)"/>
<path d="M0 0 C1.11375 0.3403125 1.11375 0.3403125 2.25 0.6875 C3 2.4375 3 2.4375 3.25 4.6875 C1.625 7 1.625 7 -0.75 8.6875 C-3.5 8.4375 -3.5 8.4375 -5.75 7.6875 C-6.08 6.0375 -6.41 4.3875 -6.75 2.6875 C-4.29511132 0.41445492 -3.41240272 -0.38777304 0 0 Z " fill="#E3242A" transform="translate(64.75,172.3125)"/>
<path d="M0 0 C0.66 0.33 1.32 0.66 2 1 C2.125 3.375 2.125 3.375 2 6 C1.34 6.66 0.68 7.32 0 8 C-5.45454545 7.54545455 -5.45454545 7.54545455 -8 5 C-7.75 2.4375 -7.75 2.4375 -7 0 C-4.30919898 -1.34540051 -2.86443593 -0.71610898 0 0 Z " fill="#E3272D" transform="translate(51,106)"/>
<path d="M0 0 C1.8125 0.8125 1.8125 0.8125 2.8125 1.8125 C3.125 4.1875 3.125 4.1875 2.8125 6.8125 C1.0625 8.6875 1.0625 8.6875 -1.1875 9.8125 C-3.4375 9.5 -3.4375 9.5 -5.1875 8.8125 C-5.9375 6.5625 -5.9375 6.5625 -6.1875 3.8125 C-3.27892452 -0.28105067 -3.27892452 -0.28105067 0 0 Z " fill="#E2242B" transform="translate(185.1875,63.1875)"/>
<path d="M0 0 C0.66 0 1.32 0 2 0 C3.32 2.97 4.64 5.94 6 9 C4.42652824 10.035969 2.84078454 11.05331732 1.25 12.0625 C0.36828125 12.63097656 -0.5134375 13.19945312 -1.421875 13.78515625 C-4 15 -4 15 -6.328125 14.68359375 C-7.15570313 14.34521484 -7.15570313 14.34521484 -8 14 C-5.45543849 11.03134491 -2.51005335 9.6380249 1 8 C0.835 7.236875 0.67 6.47375 0.5 5.6875 C0 3 0 3 0 0 Z " fill="#F9E8E8" transform="translate(57,155)"/>
<path d="M0 0 C-0.66 1.32 -1.32 2.64 -2 4 C-4 4 -6 4 -8 4 C-8 3.34 -8 2.68 -8 2 C-10.31 2 -12.62 2 -15 2 C-14.67 1.01 -14.34 0.02 -14 -1 C-8.58264203 -1.93402724 -5.19548425 -2.20808081 0 0 Z " fill="#F9E3E4" transform="translate(198,177)"/>
<path d="M0 0 C4.95 0 9.9 0 15 0 C15 0.99 15 1.98 15 3 C10.71 3 6.42 3 2 3 C2 5.31 2 7.62 2 10 C1.34 10 0.68 10 0 10 C0 6.7 0 3.4 0 0 Z " fill="#FDF4F4" transform="translate(202,125)"/>
<path d="M0 0 C5.75 0.75 5.75 0.75 8 3 C7.625 6.125 7.625 6.125 7 9 C3.06326356 7.68775452 0.77280706 6.08089673 -2 3 C-1.34 2.01 -0.68 1.02 0 0 Z " fill="#E3272E" transform="translate(53,84)"/>
<path d="M0 0 C0.125 2.375 0.125 2.375 0 5 C-2 7 -2 7 -5.625 7.125 C-6.73875 7.08375 -7.8525 7.0425 -9 7 C-9.33 5.35 -9.66 3.7 -10 2 C-6.38026598 0.68373308 -3.90432869 0 0 0 Z " fill="#E2242A" transform="translate(209,96)"/>
<path d="M0 0 C-1.0681847 5.11365014 -2.23107476 10.07227969 -4 15 C-4.99 14.67 -5.98 14.34 -7 14 C-6.34 11.03 -5.68 8.06 -5 5 C-5.99 5 -6.98 5 -8 5 C-7 2 -7 2 -5.125 0.8125 C-3 0 -3 0 0 0 Z " fill="#F9E2E2" transform="translate(112,198)"/>
<path d="M0 0 C-0.99 1.485 -0.99 1.485 -2 3 C-2.99 3 -3.98 3 -5 3 C-4.67 4.65 -4.34 6.3 -4 8 C-1.69 8 0.62 8 3 8 C2.67 8.99 2.34 9.98 2 11 C-0.8125 11.25 -0.8125 11.25 -4 11 C-7.15936057 8.16746984 -7.53374641 5.10303158 -8 1 C-2.25 -1.125 -2.25 -1.125 0 0 Z " fill="#FBEDED" transform="translate(204,95)"/>
<path d="M0 0 C5.23880078 0.55145271 9.97350697 1.42922093 15 3 C14.34 4.32 13.68 5.64 13 7 C11.02 6.34 9.04 5.68 7 5 C6.34 6.32 5.68 7.64 5 9 C5 7.02 5 5.04 5 3 C3.35 2.67 1.7 2.34 0 2 C0 1.34 0 0.68 0 0 Z " fill="#FBEFEF" transform="translate(200,143)"/>
<path d="M0 0 C2.625 0.375 2.625 0.375 5 1 C5.625 3.375 5.625 3.375 6 6 C5.34 6.66 4.68 7.32 4 8 C1.375 7.625 1.375 7.625 -1 7 C-1.625 4.625 -1.625 4.625 -2 2 C-1.34 1.34 -0.68 0.68 0 0 Z " fill="#FCF7F7" transform="translate(88,197)"/>
<path d="M0 0 C2.93453261 0.36681658 3.86437246 0.86437246 6 3 C5.46428571 6.53571429 5.46428571 6.53571429 4 8 C1.5 8.125 1.5 8.125 -1 8 C-2 7 -2 7 -2.1875 4.5625 C-2 2 -2 2 0 0 Z " fill="#FCF2F2" transform="translate(166,196)"/>
<path d="M0 0 C4.95 0.33 9.9 0.66 15 1 C15 1.99 15 2.98 15 4 C13.25008666 4.02715383 11.50005055 4.04646551 9.75 4.0625 C8.28820312 4.07990234 8.28820312 4.07990234 6.796875 4.09765625 C4.34241322 4.01195577 2.33831086 3.70706066 0 3 C0 2.01 0 1.02 0 0 Z " fill="#FAE1E2" transform="translate(39,119)"/>
<path d="M0 0 C3.35882075 1.41231461 5.13329047 3.03368978 7.3125 5.9375 C8.11107422 6.97197266 8.11107422 6.97197266 8.92578125 8.02734375 C9.28027344 8.67832031 9.63476562 9.32929687 10 10 C9.67 10.99 9.34 11.98 9 13 C5.0747975 9.29909479 2.05419844 5.45040344 -1 1 C-0.67 0.67 -0.34 0.34 0 0 Z " fill="#F9E8E8" transform="translate(73,57)"/>
<path d="M0 0 C0.99 0 1.98 0 3 0 C2.03644647 9.41002278 2.03644647 9.41002278 1 14 C0.01 14 -0.98 14 -2 14 C-1.03644647 4.58997722 -1.03644647 4.58997722 0 0 Z " fill="#FAE9EA" transform="translate(145,41)"/>
<path d="M0 0 C0.66 0 1.32 0 2 0 C1.73935572 3.82278276 1.38828678 5.57935599 -1.25 8.4375 C-4 10 -4 10 -6.8125 9.75 C-7.8953125 9.37875 -7.8953125 9.37875 -9 9 C-8 7 -8 7 -5.0625 5.625 C-1.92812978 3.96186478 -1.1240583 3.25976906 0 0 Z " fill="#FAEDED" transform="translate(189,66)"/>
<path d="M0 0 C0.26554688 0.58265625 0.53109375 1.1653125 0.8046875 1.765625 C2.03302996 4.06174228 3.40314939 5.80356018 5.125 7.75 C5.66382813 8.36359375 6.20265625 8.9771875 6.7578125 9.609375 C7.16773438 10.06828125 7.57765625 10.5271875 8 11 C7.67 11.66 7.34 12.32 7 13 C2.89800424 11.63266808 1.47878533 9.4836983 -1 6 C-1.375 3.1875 -1.375 3.1875 -1 1 C-0.67 0.67 -0.34 0.34 0 0 Z " fill="#FAEEEE" transform="translate(176,185)"/>
<path d="M0 0 C6.4 0.49230769 6.4 0.49230769 9.4375 3.0625 C10.2109375 4.0215625 10.2109375 4.0215625 11 5 C10.01 6.32 9.02 7.64 8 9 C8 7.68 8 6.36 8 5 C5.36 4.67 2.72 4.34 0 4 C0 2.68 0 1.36 0 0 Z " fill="#F9E0E1" transform="translate(45,102)"/>
<path d="M0 0 C0 1.65 0 3.3 0 5 C-1.98 5.99 -1.98 5.99 -4 7 C-3.67 5.35 -3.34 3.7 -3 2 C-4.32 2 -5.64 2 -7 2 C-7 1.34 -7 0.68 -7 0 C-4.3333581 -1.33332095 -2.83319697 -0.67102033 0 0 Z " fill="#FAEDED" transform="translate(110,49)"/>
<path d="M0 0 C0.99 0 1.98 0 3 0 C3.66 3.63 4.32 7.26 5 11 C4.01 11 3.02 11 2 11 C1.67 8.36 1.34 5.72 1 3 C0.01 2.67 -0.98 2.34 -2 2 C-1.34 1.34 -0.68 0.68 0 0 Z " fill="#FAEAEA" transform="translate(212,108)"/>
<path d="M0 0 C3.3 0.99 6.6 1.98 10 3 C10 3.99 10 4.98 10 6 C8.54119891 5.85892253 7.08296449 5.71197585 5.625 5.5625 C4.40683594 5.44068359 4.40683594 5.44068359 3.1640625 5.31640625 C1 5 1 5 -1 4 C-0.67 2.68 -0.34 1.36 0 0 Z " fill="#F8DFE0" transform="translate(153,42)"/>
<path d="M0 0 C3.68754757 0.49831724 5.60490662 1.10067643 8 4 C7.01 4.495 7.01 4.495 6 5 C5.67 5.99 5.34 6.98 5 8 C4.67 6.68 4.34 5.36 4 4 C2.35 4 0.7 4 -1 4 C-0.67 2.68 -0.34 1.36 0 0 Z " fill="#F7D7D7" transform="translate(73,181)"/>
<path d="M0 0 C0.99 0.33 1.98 0.66 3 1 C3.34342449 2.33076989 3.67619874 3.66431979 4 5 C4.99 5.66 5.98 6.32 7 7 C6.34 7 5.68 7 5 7 C4.67 7.66 4.34 8.32 4 9 C2 7.875 2 7.875 0 6 C-0.25 2.8125 -0.25 2.8125 0 0 Z " fill="#F8DFDF" transform="translate(67,187)"/>
<path d="M0 0 C0.33 0 0.66 0 1 0 C0.67 2.31 0.34 4.62 0 7 C-1.65 7.66 -3.3 8.32 -5 9 C-2.56521739 2.56521739 -2.56521739 2.56521739 0 0 Z " fill="#F8DFE0" transform="translate(211,97)"/>
<path d="M0 0 C3.36720387 1.39332574 4.9859524 2.9789286 7 6 C3 6 3 6 1.25 4.6875 C0 3 0 3 0 0 Z " fill="#FAF1F1" transform="translate(184,185)"/>
<path d="M0 0 C1.32 0.33 2.64 0.66 4 1 C3.34 2.32 2.68 3.64 2 5 C0.68 5 -0.64 5 -2 5 C-1.34 3.35 -0.68 1.7 0 0 Z " fill="#E4363C" transform="translate(194,176)"/>
<path d="M0 0 C1.9375 0.6875 1.9375 0.6875 4 2 C4.875 4.5 4.875 4.5 5 7 C4.34 7.66 3.68 8.32 3 9 C0.87491756 5.81237635 0.4979837 3.73487777 0 0 Z " fill="#FBEFEE" transform="translate(197,74)"/>
<path d="M0 0 C1.65 0 3.3 0 5 0 C5 1.32 5 2.64 5 4 C4.01 3.67 3.02 3.34 2 3 C-0.14255793 3.38932856 -0.14255793 3.38932856 -2 4 C-1.34 2.68 -0.68 1.36 0 0 Z " fill="#F9E6E5" transform="translate(132,200)"/>
<path d="M0 0 C0.99 0.33 1.98 0.66 3 1 C3 2.65 3 4.3 3 6 C1.68 6.33 0.36 6.66 -1 7 C-1.33 6.34 -1.66 5.68 -2 5 C-1.34 5 -0.68 5 0 5 C0 3.35 0 1.7 0 0 Z " fill="#FAEDED" transform="translate(174,52)"/>
<path d="M0 0 C0.99 0 1.98 0 3 0 C3 0.66 3 1.32 3 2 C4.65 1.34 6.3 0.68 8 0 C8 0.99 8 1.98 8 3 C6.02 3.33 4.04 3.66 2 4 C1.34 2.68 0.68 1.36 0 0 Z " fill="#FAECEC" transform="translate(116,211)"/>
<path d="M0 0 C0.66 0.33 1.32 0.66 2 1 C0.70700306 3.88437779 -0.65941363 5.87219421 -3 8 C-3.75 6.25 -3.75 6.25 -4 4 C-2.0625 1.75 -2.0625 1.75 0 0 Z " fill="#F7DBDB" transform="translate(63,66)"/>
<path d="M0 0 C2.475 0.99 2.475 0.99 5 2 C5 2.99 5 3.98 5 5 C2.5625 4.625 2.5625 4.625 0 4 C-0.33 3.34 -0.66 2.68 -1 2 C-0.67 1.34 -0.34 0.68 0 0 Z " fill="#E2252D" transform="translate(169,52)"/>
<path d="M0 0 C0.99 0.33 1.98 0.66 3 1 C2.67 2.65 2.34 4.3 2 6 C1.01 5.67 0.02 5.34 -1 5 C-0.67 3.35 -0.34 1.7 0 0 Z " fill="#E4333B" transform="translate(134,207)"/>
<path d="M0 0 C1.65 0 3.3 0 5 0 C4.34 1.65 3.68 3.3 3 5 C2.01 4.67 1.02 4.34 0 4 C0 2.68 0 1.36 0 0 Z " fill="#E42E35" transform="translate(207,148)"/>
<path d="M0 0 C0.6875 1.6875 0.6875 1.6875 1 4 C-0.375 6.75 -0.375 6.75 -2 9 C-2.33 9 -2.66 9 -3 9 C-3.36923077 3.46153846 -3.36923077 3.46153846 -1.5 1.125 C-1.005 0.75375 -0.51 0.3825 0 0 Z " fill="#FBF2F1" transform="translate(42,127)"/>
<path d="M0 0 C0.99 0.33 1.98 0.66 3 1 C2.67 2.65 2.34 4.3 2 6 C1.01 5.67 0.02 5.34 -1 5 C-0.67 3.35 -0.34 1.7 0 0 Z " fill="#E5373E" transform="translate(120,202)"/>
<path d="M0 0 C0.66 0.33 1.32 0.66 2 1 C1.67 2.98 1.34 4.96 1 7 C0.01 7 -0.98 7 -2 7 C-1.125 1.125 -1.125 1.125 0 0 Z " fill="#FAEDED" transform="translate(118,200)"/>
<path d="M0 0 C2 2 2 2 2 6 C0.68 5.67 -0.64 5.34 -2 5 C-1.125 1.125 -1.125 1.125 0 0 Z " fill="#E43138" transform="translate(192,79)"/>
<path d="M0 0 C1.42944945 2.35438733 2.08661261 3.48032433 1.625 6.25 C1.41875 6.8275 1.2125 7.405 1 8 C0.34 8 -0.32 8 -1 8 C-1.04241723 5.66705225 -1.04092937 3.33297433 -1 1 C-0.67 0.67 -0.34 0.34 0 0 Z " fill="#FDFCFC" transform="translate(131,203)"/>
<path d="M0 0 C0.66 0 1.32 0 2 0 C2.33 2.31 2.66 4.62 3 7 C2.01 7 1.02 7 0 7 C0 4.69 0 2.38 0 0 Z " fill="#F8D7D8" transform="translate(202,115)"/>
</svg>
